<svg width="921" height="904" viewBox="0 0 921 904" fill="none" xmlns="http://www.w3.org/2000/svg">
<path d="M230.674 703.746C357.606 763.121 563.394 763.139 690.326 703.746C817.259 644.353 817.24 548.095 690.326 488.72C563.413 429.346 357.606 429.346 230.674 488.72C103.741 548.095 103.76 644.371 230.674 703.746Z" fill="#F5F5F5"/>
<path d="M689.884 659.866C713.262 659.866 732.214 651.002 732.214 640.068C732.214 629.134 713.262 620.271 689.884 620.271C666.507 620.271 647.555 629.134 647.555 640.068C647.555 651.002 666.507 659.866 689.884 659.866Z" fill="#EBEBEB"/>
<path d="M221.04 642.907L236.016 634.427C244.377 627.73 250.741 618.941 254.436 608.989C259.059 596.477 258.414 586.967 255.099 582.194C251.028 576.318 240.473 577.349 240.049 589.715C239.165 614.087 231.926 630.992 221.04 642.907Z" fill="#242861"/>
<path opacity="0.2" d="M221.04 642.907L236.016 634.427C244.377 627.73 250.741 618.941 254.436 608.989C259.059 596.477 258.414 586.967 255.099 582.194C251.028 576.318 240.473 577.349 240.049 589.715C239.165 614.087 231.926 630.992 221.04 642.907Z" fill="black"/>
<path d="M221.04 643.811C220.845 643.808 220.656 643.745 220.5 643.631C220.343 643.516 220.228 643.356 220.171 643.173C220.114 642.99 220.117 642.794 220.18 642.613C220.244 642.432 220.364 642.275 220.524 642.165C255.154 618.661 248.449 585.882 248.375 585.557C248.35 585.438 248.349 585.316 248.371 585.196C248.394 585.077 248.441 584.964 248.508 584.862C248.576 584.76 248.663 584.673 248.765 584.605C248.867 584.536 248.982 584.488 249.103 584.463C249.224 584.438 249.349 584.437 249.47 584.459C249.592 584.482 249.707 584.527 249.811 584.594C249.914 584.66 250.003 584.746 250.073 584.846C250.143 584.946 250.192 585.059 250.217 585.177C250.217 585.521 257.291 619.421 221.629 643.648C221.456 643.764 221.249 643.821 221.04 643.811Z" fill="white"/>
<path d="M191.034 659.92C191.034 659.92 185.821 655.762 187.074 650.121C188.326 644.48 191.697 640.43 185.932 633.162C180.166 625.893 178.564 616.203 185.453 610.959C190.702 606.891 198.899 612.641 201.846 601.919C204.02 594.073 203.283 576.698 213.469 570.912C223.656 565.127 230.047 573.841 228.445 585.629C227.045 596.17 225.056 606.313 226.603 609.133C229.587 614.557 234.689 613.816 234.45 623.724C234.247 632.945 225.35 640.574 225.35 640.574L191.034 659.92Z" fill="#242861"/>
<path d="M208.146 651.079C207.921 651.077 207.704 650.995 207.535 650.849C207.366 650.703 207.256 650.502 207.225 650.283C204.591 628.859 210.909 591.867 216.067 580.874C216.11 580.752 216.18 580.641 216.271 580.548C216.362 580.454 216.472 580.381 216.594 580.333C216.716 580.285 216.847 580.264 216.979 580.27C217.11 580.276 217.239 580.309 217.356 580.368C217.466 580.417 217.565 580.486 217.647 580.573C217.729 580.66 217.792 580.762 217.834 580.873C217.875 580.984 217.893 581.103 217.887 581.221C217.881 581.339 217.851 581.455 217.798 581.561C212.696 592.409 206.599 629.509 209.122 649.994C209.148 650.231 209.078 650.469 208.926 650.655C208.774 650.841 208.553 650.961 208.312 650.988L208.146 651.079Z" fill="white"/>
<path d="M207.649 634.391C207.508 634.398 207.368 634.366 207.243 634.301C200.852 631.245 196.799 620.343 196.634 619.837C196.588 619.724 196.567 619.604 196.57 619.483C196.573 619.362 196.6 619.243 196.651 619.133C196.702 619.023 196.774 618.924 196.865 618.842C196.955 618.76 197.061 618.696 197.177 618.655C197.293 618.614 197.416 618.596 197.539 618.602C197.662 618.609 197.782 618.639 197.893 618.692C198.004 618.745 198.103 618.819 198.184 618.91C198.265 619.001 198.326 619.107 198.365 619.222C198.365 619.33 202.325 629.889 208.054 632.619C208.242 632.708 208.393 632.858 208.483 633.043C208.573 633.228 208.597 633.437 208.55 633.637C208.503 633.836 208.388 634.014 208.224 634.142C208.06 634.269 207.857 634.338 207.649 634.337V634.391Z" fill="white"/>
<path d="M207.538 641.623C207.354 641.623 207.173 641.568 207.022 641.464C206.87 641.361 206.755 641.214 206.691 641.044C206.599 640.824 206.6 640.577 206.693 640.356C206.786 640.136 206.964 639.961 207.188 639.869C217.945 635.639 224.65 623.073 224.724 622.928C224.836 622.715 225.03 622.554 225.264 622.481C225.497 622.408 225.75 622.429 225.967 622.54C226.185 622.65 226.349 622.84 226.423 623.069C226.497 623.298 226.476 623.547 226.363 623.76C226.069 624.302 219.272 637.067 207.943 641.551C207.817 641.609 207.677 641.634 207.538 641.623Z" fill="white"/>
<path d="M583.546 544.353C583.546 544.353 575.496 531.552 574.704 517.648C573.912 503.745 577.025 497.959 581.298 496.296C585.572 494.633 585.903 499.749 588.095 502.769C590.287 505.788 594.763 504.07 596.421 494.651C598.079 485.231 604.121 469.339 616.683 466.247C630.498 462.884 623.093 478.795 619.612 484.996C616.131 491.197 613.441 499.659 615.725 501.955C618.009 504.251 621.565 500.002 624.935 503.944C629.043 508.699 616.278 525.821 608.947 529.961L583.546 544.353Z" fill="#242861"/>
<path d="M594.579 538.983C594.458 538.978 594.339 538.95 594.229 538.9C594.119 538.851 594.021 538.78 593.938 538.693C593.856 538.605 593.793 538.503 593.751 538.392C593.709 538.28 593.69 538.161 593.695 538.043C594.942 515.677 602.048 494.006 614.325 475.124C614.395 475.026 614.484 474.942 614.587 474.879C614.691 474.815 614.806 474.773 614.927 474.754C615.047 474.736 615.17 474.741 615.289 474.771C615.407 474.8 615.518 474.853 615.615 474.925C615.808 475.066 615.937 475.276 615.975 475.509C616.013 475.742 615.956 475.98 615.817 476.173C603.76 494.778 596.782 516.116 595.555 538.133C595.548 538.252 595.517 538.368 595.465 538.475C595.412 538.582 595.338 538.678 595.247 538.757C595.156 538.836 595.051 538.897 594.936 538.935C594.821 538.974 594.7 538.99 594.579 538.983Z" fill="white"/>
<path d="M595.629 528.298C595.475 528.296 595.324 528.259 595.187 528.189C590.029 525.387 587.174 517.07 587.064 516.726C587.023 516.614 587.006 516.494 587.013 516.375C587.019 516.255 587.05 516.138 587.103 516.031C587.156 515.923 587.231 515.827 587.322 515.748C587.413 515.669 587.52 515.608 587.635 515.569C587.867 515.495 588.12 515.514 588.337 515.623C588.555 515.731 588.719 515.92 588.795 516.148C588.795 516.148 591.558 524.157 596.163 526.598C596.372 526.719 596.525 526.915 596.59 527.144C596.655 527.373 596.628 527.618 596.513 527.828C596.43 527.983 596.302 528.111 596.144 528.195C595.987 528.278 595.807 528.314 595.629 528.298Z" fill="white"/>
<path d="M596.532 522.819C596.328 522.817 596.13 522.749 595.97 522.624C595.81 522.5 595.697 522.327 595.648 522.132C595.617 522.018 595.611 521.9 595.628 521.783C595.645 521.666 595.685 521.554 595.747 521.453C595.809 521.352 595.89 521.264 595.987 521.195C596.084 521.125 596.194 521.075 596.311 521.048C609.61 517.739 614.215 510.905 614.252 510.832C614.317 510.731 614.402 510.644 614.502 510.575C614.601 510.507 614.714 510.458 614.833 510.432C614.952 510.406 615.075 510.403 615.195 510.424C615.314 510.444 615.429 510.488 615.532 510.552C615.635 510.616 615.724 510.7 615.794 510.797C615.864 510.895 615.913 511.006 615.94 511.122C615.966 511.239 615.969 511.36 615.948 511.477C615.927 511.595 615.883 511.708 615.817 511.809C615.615 512.116 610.826 519.294 596.771 522.801L596.532 522.819Z" fill="white"/>
<path d="M383.136 516.256C383.136 516.256 365.471 512.026 364.55 479.554C363.574 444.515 368.879 403.618 347.972 400.309C327.066 397.001 315.461 422.005 315.719 451.204C315.958 476.77 326.458 532.275 383.062 543.159L383.136 516.256Z" fill="#242861"/>
<path opacity="0.2" d="M383.136 516.256C383.136 516.256 365.471 512.026 364.55 479.554C363.574 444.515 368.879 403.618 347.972 400.309C327.066 397.001 315.461 422.005 315.719 451.204C315.958 476.77 326.458 532.275 383.062 543.159L383.136 516.256Z" fill="black"/>
<path d="M383.136 539.833H382.97C370.242 537.555 359.872 530.666 352.154 519.384C329.276 485.882 336.478 423.325 338.854 412.405C338.908 412.172 339.05 411.969 339.253 411.837C339.456 411.706 339.702 411.657 339.941 411.7C340.18 411.756 340.387 411.9 340.521 412.102C340.654 412.303 340.704 412.548 340.66 412.784C338.32 423.632 331.155 485.394 353.682 518.372C356.962 523.486 361.288 527.875 366.387 531.262C371.486 534.648 377.246 536.957 383.302 538.043C383.422 538.064 383.537 538.109 383.639 538.175C383.741 538.24 383.829 538.325 383.898 538.425C383.966 538.524 384.014 538.636 384.038 538.753C384.063 538.871 384.063 538.992 384.039 539.109C383.999 539.315 383.887 539.501 383.722 539.633C383.557 539.766 383.349 539.836 383.136 539.833Z" fill="white"/>
<path d="M383.136 623.163C364.882 625.586 335.244 625.55 318.132 612.315C301.02 599.081 304.593 587.69 311.169 582.935C317.745 578.18 323.455 572.756 312.145 562.198C300.835 551.639 282.673 534.68 276.779 509.241C270.885 483.803 273.795 467.892 285.363 462.595C296.58 457.46 299.546 465.632 306.417 482.483C313.287 499.333 328.742 484.888 341.967 490.149C355.193 495.41 354.659 505.824 355.488 514.774C356.316 523.723 360.682 526.2 368.179 526.2C375.676 526.2 383.136 530.431 383.136 538.856V623.163Z" fill="#242861"/>
<path d="M383.136 593.621C383.057 593.638 382.975 593.638 382.897 593.621C382.105 593.404 363.224 588.016 335.723 563.228C306.435 536.831 292.62 497.236 292.473 496.838C292.402 496.611 292.424 496.365 292.534 496.152C292.644 495.94 292.833 495.778 293.062 495.699C293.292 495.624 293.542 495.641 293.76 495.746C293.977 495.851 294.143 496.035 294.223 496.26C294.352 496.658 308.038 535.819 336.976 561.89C364.09 586.352 383.191 591.831 383.394 591.885C383.51 591.918 383.618 591.974 383.713 592.048C383.807 592.122 383.885 592.214 383.944 592.318C384.002 592.422 384.038 592.537 384.052 592.655C384.065 592.773 384.054 592.892 384.02 593.006C383.96 593.188 383.842 593.347 383.683 593.458C383.523 593.569 383.331 593.626 383.136 593.621Z" fill="white"/>
<path d="M343.404 569.52C343.219 569.523 343.037 569.468 342.885 569.365C342.733 569.261 342.618 569.113 342.557 568.941C336.644 554.043 335.299 522.168 335.189 520.812C335.184 520.574 335.273 520.343 335.438 520.167C335.603 519.992 335.83 519.886 336.073 519.872C336.313 519.876 336.544 519.966 336.721 520.126C336.898 520.287 337.008 520.505 337.031 520.74C337.031 521.066 338.412 553.664 344.215 568.291C344.259 568.402 344.28 568.521 344.277 568.641C344.275 568.76 344.247 568.878 344.198 568.988C344.148 569.097 344.077 569.196 343.988 569.278C343.899 569.36 343.795 569.424 343.68 569.466C343.592 569.497 343.498 569.515 343.404 569.52Z" fill="white"/>
<path d="M343.257 590.945C341.559 590.958 339.861 590.873 338.173 590.692C338.052 590.677 337.935 590.64 337.829 590.581C337.723 590.523 337.629 590.444 337.554 590.35C337.479 590.256 337.423 590.149 337.39 590.033C337.357 589.918 337.348 589.798 337.362 589.679C337.377 589.561 337.415 589.446 337.475 589.342C337.534 589.237 337.614 589.146 337.71 589.072C337.806 588.998 337.916 588.943 338.033 588.911C338.15 588.879 338.273 588.869 338.394 588.884C338.56 588.884 355.709 590.8 363.574 582.935C363.656 582.84 363.757 582.763 363.871 582.708C363.985 582.653 364.109 582.621 364.236 582.616C364.362 582.61 364.489 582.63 364.608 582.675C364.726 582.719 364.834 582.788 364.924 582.875C365.015 582.962 365.086 583.067 365.133 583.183C365.18 583.299 365.202 583.423 365.198 583.547C365.194 583.672 365.164 583.794 365.11 583.906C365.055 584.019 364.978 584.119 364.882 584.201C359.19 589.969 349.262 590.945 343.257 590.945Z" fill="white"/>
<path d="M329.994 248.582L328.005 237.318L317.763 243.935C316.828 242.127 315.501 240.542 313.877 239.289L318.777 226.271L309.567 224.264L302.825 236.92C300.386 237.324 298.021 238.08 295.807 239.162L292.878 229.616L281.937 238.059L282.655 249.269C280.427 251.719 278.406 254.343 276.613 257.116L267.587 256.664L261.251 270.603L269.006 273.858C268.196 276.741 267.684 279.697 267.477 282.681L257.622 291.576L259.593 302.858L269.853 296.241C270.783 298.047 272.111 299.628 273.74 300.869L268.932 313.905L278.142 315.894L287.794 306.673C290.023 306.329 289.47 302.207 291.902 301.032L294.831 310.542L305.754 302.117L305.477 297.705C307.688 295.283 316.05 289.949 317.856 287.165L320.121 283.549L326.458 269.609L323.51 264.366L320.232 257.532L329.994 248.582ZM296.562 285.664C288.162 292.137 285.51 293.565 284.092 284.905C282.673 276.244 287.481 263.082 295.88 256.591C304.28 250.101 307.485 249.649 308.996 258.291C310.506 266.933 304.98 279.264 296.562 285.664Z" fill="#E0E0E0"/>
<path d="M309.64 224.264L321.595 231.026L314.853 243.646L302.898 236.884L309.64 224.264Z" fill="#F5F5F5"/>
<path d="M339.96 244.08L329.718 250.697L317.763 243.935L328.005 237.318L339.96 244.08Z" fill="#F5F5F5"/>
<path d="M338.32 276.317L330.565 273.08L318.611 266.318L326.366 269.555L338.32 276.317Z" fill="#E0E0E0"/>
<path d="M268.914 313.905L280.868 320.649L285.768 307.631L273.813 300.869L268.914 313.905Z" fill="#E0E0E0"/>
<path d="M306.675 317.304L294.738 310.542L291.81 301.032L303.764 307.794L306.675 317.304Z" fill="#E0E0E0"/>
<path d="M341.93 255.344L339.96 244.08L329.718 250.697C328.775 248.889 327.443 247.303 325.813 246.051L330.713 233.033L321.595 231.026L314.835 243.682C312.396 244.086 310.031 244.842 307.817 245.924L304.906 236.414L293.965 244.857L294.683 256.067C292.453 258.534 290.432 261.177 288.641 263.968L279.597 263.516L273.261 277.456L281.016 280.71C280.213 283.601 279.701 286.562 279.487 289.551L269.65 298.32L271.621 309.602L281.863 302.985C282.806 304.788 284.138 306.368 285.768 307.613L280.868 320.631L290.078 322.638L296.82 309.982C299.268 309.582 301.641 308.82 303.856 307.722L306.767 317.232L317.708 308.806L316.99 297.597C319.218 295.147 321.239 292.523 323.032 289.75L332.076 290.184L338.412 276.244L330.547 273.008C331.362 270.119 331.881 267.157 332.094 264.167L341.93 255.344ZM308.535 292.498C300.154 298.971 292.123 297.217 290.594 288.575C289.065 279.933 294.646 267.656 303.046 261.184C311.445 254.711 319.458 256.483 320.987 265.125C322.516 273.767 316.935 286.026 308.535 292.498Z" fill="#EBEBEB"/>
<path d="M304.906 236.378L292.952 229.616L282.01 238.059L293.965 244.821L304.906 236.378Z" fill="#F5F5F5"/>
<path d="M282.01 238.059L282.729 249.269L294.683 256.031L293.965 244.821L282.01 238.059Z" fill="#E0E0E0"/>
<path d="M288.641 263.878L276.687 257.116L267.661 256.682L279.597 263.444L288.641 263.878Z" fill="#F5F5F5"/>
<path d="M267.661 256.682L261.325 270.603L273.261 277.365L279.597 263.444L267.661 256.682Z" fill="#E0E0E0"/>
<path d="M279.487 289.443L267.551 282.681L257.696 291.576L269.632 298.338L279.487 289.443Z" fill="#F5F5F5"/>
<path d="M271.621 309.62L259.667 302.858L257.696 291.576L269.632 298.338L271.621 309.62Z" fill="#E0E0E0"/>
<path d="M321.595 231.026L309.64 224.264L318.777 226.271L330.713 233.033L321.595 231.026Z" fill="#F5F5F5"/>
<path d="M276.466 197.452V180.619L262.817 186.658C262.094 183.802 260.845 181.1 259.133 178.685L267.735 161.671L257.235 155.723L246.515 171.543C243.527 171.287 240.517 171.575 237.636 172.393L236.126 157.766L221.279 166.191L219.787 182.463C216.556 185.274 213.585 188.359 210.909 191.684L200.189 188.068L189.689 205.931L198.273 213.163C196.687 217.1 195.454 221.165 194.589 225.313L180.94 234.733V251.583L194.589 245.544C195.312 248.4 196.56 251.102 198.273 253.518L189.726 270.549L200.225 276.497L210.946 260.677C213.933 260.933 216.943 260.645 219.824 259.828L221.316 274.454L236.163 266.029L237.673 249.757C242.307 248.098 246.412 245.266 249.573 241.549L257.272 244.207L267.772 226.362L261.325 220.938C262.724 216.415 263.243 211.673 262.853 206.962L276.466 197.452ZM228.703 239.506C217.319 245.96 210.283 241.314 210.283 228.459C210.283 215.604 219.695 199.712 231.097 193.257C242.499 186.803 249.388 191.449 249.388 204.412C249.388 217.376 240.105 233.033 228.703 239.506Z" fill="#E0E0E0"/>
<path d="M269.171 162.467L257.235 155.723L246.515 171.543L258.451 178.305L269.171 162.467Z" fill="#F5F5F5"/>
<path d="M288.42 187.381L276.466 180.619L262.817 186.658L274.771 193.42L288.42 187.381Z" fill="#F5F5F5"/>
<path d="M233.216 281.216L221.279 274.454L219.787 259.828L231.724 266.59L233.216 281.216Z" fill="#E0E0E0"/>
<path d="M189.671 270.549L201.625 277.311L210.227 260.298L198.273 253.536L189.671 270.549Z" fill="#E0E0E0"/>
<path d="M288.42 204.304V187.472L274.771 193.456C274.056 190.598 272.807 187.894 271.087 185.483L279.689 168.469L269.19 162.503L258.469 178.341C255.482 178.076 252.47 178.364 249.591 179.191L248.081 164.528L233.234 172.953L231.724 189.225C228.497 192.04 225.526 195.125 222.845 198.446L212.125 194.83L201.625 212.693L210.227 219.925C208.633 223.859 207.4 227.925 206.543 232.075L192.894 241.495V258.345L206.543 252.306C207.258 255.165 208.508 257.868 210.227 260.28L201.625 277.293L212.125 283.241L222.845 267.421C225.833 267.677 228.843 267.389 231.724 266.572L233.234 281.198L248.081 272.773L249.573 256.501C252.804 253.691 255.775 250.605 258.451 247.28L269.172 250.896L279.671 233.051L271.069 225.819C272.663 221.885 273.896 217.819 274.753 213.669L288.42 204.304ZM240.657 246.358C229.255 252.813 220.009 247.569 220.009 234.66C220.009 221.751 229.219 206.04 240.657 199.567C252.096 193.094 261.288 198.356 261.288 211.265C261.288 224.174 252.041 239.795 240.657 246.268V246.358Z" fill="#EBEBEB"/>
<path d="M210.909 191.72L222.845 198.482L212.125 194.812L200.189 188.032L210.909 191.72Z" fill="#F0F0F0"/>
<path d="M200.187 188.05L189.685 205.92L201.636 212.686L212.138 194.817L200.187 188.05Z" fill="#F5F5F5"/>
<path d="M189.671 205.895L201.625 212.657L210.227 219.925L198.273 213.181L189.671 205.895Z" fill="#E0E0E0"/>
<path d="M194.589 225.331L206.543 232.093L192.894 241.513L180.94 234.751L194.589 225.331Z" fill="#F5F5F5"/>
<path d="M180.94 234.751L192.894 241.513V258.363L180.94 251.601V234.751Z" fill="#E0E0E0"/>
<path d="M248.081 164.528L236.126 157.766L221.279 166.191L233.216 172.953L248.081 164.528Z" fill="#F5F5F5"/>
<path d="M401.335 647.354L574.483 549.216C574.864 549.084 575.195 548.84 575.429 548.516C575.662 548.192 575.788 547.805 575.788 547.408C575.788 547.011 575.662 546.624 575.429 546.3C575.195 545.976 574.864 545.732 574.483 545.6L558.476 536.56C557.485 536.07 556.39 535.815 555.28 535.815C554.17 535.815 553.076 536.07 552.084 536.56L378.881 634.608C378.5 634.74 378.169 634.984 377.935 635.308C377.702 635.632 377.576 636.019 377.576 636.416C377.576 636.813 377.702 637.2 377.935 637.524C378.169 637.848 378.5 638.092 378.881 638.224L394.943 647.264C395.927 647.768 397.018 648.038 398.128 648.054C399.238 648.07 400.336 647.83 401.335 647.354Z" fill="#E0E0E0"/>
<path d="M569.731 170.314L413.603 258.797C411.282 260.284 409.35 262.286 407.965 264.642C406.579 266.998 405.778 269.641 405.627 272.357V635.892C405.627 640.882 409.2 642.907 413.603 640.412L569.731 551.928C572.055 550.445 573.989 548.443 575.375 546.087C576.761 543.73 577.56 541.085 577.707 538.368V174.834C577.707 169.844 574.151 167.819 569.731 170.314Z" fill="#455A64"/>
<path d="M413.603 258.797L569.731 170.314C573.673 168.072 576.933 169.464 577.596 173.351C577.228 170.907 576.336 168.567 574.981 166.486C573.625 164.404 571.836 162.628 569.731 161.274L563.247 157.658C560.775 156.427 558.043 155.785 555.271 155.785C552.499 155.785 549.767 156.427 547.295 157.658L391.149 246.069C388.797 247.516 386.858 249.526 385.512 251.909L407.966 264.565C409.311 262.2 411.252 260.214 413.603 258.797Z" fill="#37474F"/>
<path d="M383.136 623.163C383.287 625.88 384.088 628.523 385.474 630.878C386.859 633.234 388.791 635.237 391.112 636.723L397.614 640.339C399.865 641.444 402.328 642.07 404.842 642.176C407.356 642.282 409.864 641.866 412.203 640.954C408.519 642.364 405.59 640.285 405.59 635.819V272.357C405.682 269.629 406.488 266.971 407.929 264.637L385.475 251.981C384.054 254.297 383.25 256.927 383.136 259.629V623.163Z" fill="#263238"/>
<path d="M417.895 307.233L565.494 223.613C568.147 222.131 570.283 223.342 570.283 226.325V495.392C570.195 497.023 569.715 498.61 568.882 500.024C568.05 501.438 566.889 502.638 565.494 503.528L417.95 587.148C415.297 588.649 413.161 587.437 413.161 584.436V315.369C413.244 313.744 413.717 312.161 414.539 310.747C415.361 309.334 416.511 308.13 417.895 307.233Z" fill="white"/>
<path d="M491.667 228.332C490.852 228.857 490.174 229.563 489.688 230.392C489.202 231.221 488.92 232.15 488.867 233.105C488.867 234.913 490.119 235.582 491.667 234.696C492.485 234.175 493.165 233.47 493.651 232.64C494.138 231.811 494.417 230.88 494.467 229.923C494.467 228.17 493.214 227.464 491.667 228.332Z" fill="#37474F"/>
<path d="M491.667 558.202C488.447 560.27 485.768 563.053 483.848 566.326C481.928 569.599 480.82 573.27 480.615 577.041C480.615 583.966 485.57 586.786 491.667 583.315C494.886 581.246 497.564 578.463 499.484 575.19C501.404 571.917 502.512 568.247 502.719 564.476C502.756 557.551 497.782 554.731 491.667 558.202Z" fill="#37474F"/>
<path d="M465.16 256.32C463.541 257.375 462.198 258.788 461.238 260.447C460.278 262.105 459.729 263.961 459.634 265.866C459.634 269.374 462.139 270.802 465.16 269.048C466.796 268.004 468.158 266.595 469.134 264.936C470.11 263.277 470.674 261.415 470.778 259.502C470.778 255.995 468.273 254.566 465.16 256.32Z" fill="#37474F"/>
<path d="M478.92 255.127C478.92 257.477 480.762 258.363 482.917 257.116L519.757 236.197C520.898 235.498 521.855 234.544 522.55 233.412C523.244 232.281 523.657 231.005 523.754 229.688C523.754 227.356 521.912 226.47 519.757 227.718L482.917 248.636C481.778 249.334 480.823 250.285 480.129 251.413C479.434 252.541 479.02 253.813 478.92 255.127Z" fill="#37474F"/>
<path d="M395.588 318.877C396.895 319.713 397.983 320.839 398.764 322.165C399.545 323.49 399.997 324.978 400.082 326.507C400.082 329.327 398.075 330.466 395.588 329.056C394.285 328.217 393.201 327.09 392.424 325.764C391.646 324.439 391.197 322.953 391.112 321.426C391.112 318.624 393.12 317.485 395.588 318.877Z" fill="#37474F"/>
<path d="M395.588 352.831C396.895 353.667 397.983 354.793 398.764 356.119C399.545 357.444 399.997 358.932 400.082 360.461C400.082 363.263 398.075 364.402 395.588 363.01C394.285 362.171 393.201 361.044 392.424 359.719C391.646 358.393 391.197 356.907 391.112 355.381C391.112 352.56 393.12 351.421 395.588 352.831Z" fill="#37474F"/>
<path d="M394.188 319.564C395.495 320.4 396.583 321.526 397.364 322.852C398.145 324.177 398.597 325.665 398.683 327.194C398.683 329.996 396.675 331.135 394.188 329.743C392.881 328.907 391.793 327.781 391.012 326.455C390.231 325.13 389.779 323.642 389.694 322.113C389.712 319.293 391.72 318.208 394.188 319.564Z" fill="#455A64"/>
<path d="M394.188 353.5C395.498 354.338 396.587 355.467 397.368 356.796C398.149 358.125 398.6 359.616 398.683 361.148C398.683 363.95 396.675 365.089 394.188 363.679C392.878 362.847 391.787 361.721 391.006 360.395C390.225 359.069 389.775 357.579 389.694 356.049C389.712 353.247 391.72 352.108 394.188 353.5Z" fill="#455A64"/>
<path d="M600.16 234.841C600.16 231.84 598.024 230.628 595.371 232.129L577.706 242.127L447.827 315.749C446.432 316.639 445.271 317.84 444.439 319.254C443.606 320.667 443.126 322.254 443.038 323.885V592.879C443.038 595.881 445.175 597.092 447.827 595.591L577.762 521.952L595.371 511.971C596.766 511.082 597.927 509.881 598.76 508.467C599.592 507.053 600.072 505.466 600.16 503.835V234.841Z" fill="white"/>
<path d="M602.002 234.841C602.118 233.934 601.959 233.014 601.545 232.196C601.131 231.377 600.481 230.697 599.674 230.24C598.868 229.782 597.943 229.568 597.014 229.625C596.085 229.681 595.193 230.005 594.45 230.556L577.596 240.12L446.906 314.248C445.223 315.291 443.824 316.719 442.83 318.411C441.835 320.102 441.274 322.006 441.196 323.957V592.879C441.122 593.782 441.299 594.687 441.707 595.499C442.116 596.311 442.741 596.999 443.517 597.49C444.176 597.866 444.928 598.06 445.69 598.05C446.77 598.017 447.823 597.712 448.748 597.164L579.53 523.036L596.348 513.508C598.021 512.456 599.412 511.025 600.406 509.335C601.399 507.646 601.966 505.748 602.058 503.799L602.002 234.841ZM577.633 519.945L576.122 520.812L446.98 594C446.763 594.164 446.511 594.278 446.244 594.334C445.976 594.391 445.699 594.388 445.432 594.326C445.193 594.181 444.954 593.675 444.954 592.843V323.885C445.049 322.572 445.447 321.298 446.117 320.158C446.787 319.018 447.712 318.042 448.822 317.304L577.835 244.08L596.255 233.612C596.473 233.448 596.724 233.334 596.992 233.278C597.259 233.221 597.536 233.224 597.803 233.286C598.042 233.431 598.282 233.937 598.282 234.769V503.835C598.186 505.148 597.789 506.423 597.118 507.562C596.448 508.702 595.524 509.678 594.413 510.416L577.596 519.945H577.633Z" fill="#242861"/>
<path d="M521.599 297.344C538.177 287.978 551.532 295.536 551.532 314.321C551.532 333.106 538.122 355.905 521.599 365.198C505.077 374.491 491.667 367.006 491.667 348.239C491.667 329.472 505.077 306.727 521.599 297.344Z" fill="#242861"/>
<path d="M521.599 312.097C526.959 309.06 531.307 311.518 531.307 317.521C531.124 320.828 530.151 324.046 528.464 326.914C526.777 329.782 524.425 332.219 521.599 334.028C516.239 337.065 511.892 334.607 511.892 328.604C512.074 325.297 513.048 322.079 514.735 319.211C516.421 316.343 518.773 313.906 521.599 312.097Z" fill="#242861"/>
<path d="M540.516 344.496C540.516 334.516 533.388 330.466 524.565 335.456L519.039 338.584C510.234 343.574 503.087 355.724 503.087 365.704V368.398C508.189 370.043 514.6 369.157 521.507 365.198C529.159 360.565 535.63 354.276 540.424 346.811L540.516 344.496Z" fill="#242861"/>
<path opacity="0.7" d="M521.599 312.097C526.959 309.06 531.307 311.518 531.307 317.521C531.124 320.828 530.151 324.046 528.464 326.914C526.777 329.782 524.425 332.219 521.599 334.028C516.239 337.065 511.892 334.607 511.892 328.604C512.074 325.297 513.048 322.079 514.735 319.211C516.421 316.343 518.773 313.906 521.599 312.097Z" fill="white"/>
<path opacity="0.7" d="M540.516 344.496C540.516 334.516 533.388 330.466 524.565 335.456L519.039 338.584C510.234 343.574 503.087 355.724 503.087 365.704V368.398C508.189 370.043 514.6 369.157 521.507 365.198C529.159 360.565 535.63 354.276 540.424 346.811L540.516 344.496Z" fill="white"/>
<path d="M463.687 406.511L502.203 384.688C504.045 383.694 505.39 384.489 505.39 386.496V387.744C505.331 388.83 505.012 389.888 504.458 390.83C503.905 391.773 503.132 392.574 502.203 393.168L463.687 414.99C461.937 415.985 460.5 415.171 460.5 413.182V411.935C460.56 410.848 460.879 409.791 461.433 408.849C461.987 407.907 462.759 407.106 463.687 406.511Z" fill="#242861"/>
<path opacity="0.1" d="M463.687 406.511L502.203 384.688C504.045 383.694 505.39 384.489 505.39 386.496V387.744C505.331 388.83 505.012 389.888 504.458 390.83C503.905 391.773 503.132 392.574 502.203 393.168L463.687 414.99C461.937 415.985 460.5 415.171 460.5 413.182V411.935C460.56 410.848 460.879 409.791 461.433 408.849C461.987 407.907 462.759 407.106 463.687 406.511Z" fill="black"/>
<path d="M462.103 432.853L578.627 366.825C579.493 366.319 580.212 366.717 580.212 367.729V381.072C580.179 381.614 580.019 382.14 579.744 382.611C579.47 383.082 579.087 383.483 578.627 383.784L462.103 449.812C461.218 450.319 460.5 449.903 460.5 448.908V435.565C460.532 435.022 460.693 434.493 460.972 434.022C461.25 433.55 461.637 433.15 462.103 432.853Z" fill="#242861"/>
<path opacity="0.2" d="M462.103 432.853L578.627 366.825C579.493 366.319 580.212 366.717 580.212 367.729V381.072C580.179 381.614 580.019 382.14 579.744 382.611C579.47 383.082 579.087 383.483 578.627 383.784L462.103 449.812C461.218 450.319 460.5 449.903 460.5 448.908V435.565C460.532 435.022 460.693 434.493 460.972 434.022C461.25 433.55 461.637 433.15 462.103 432.853Z" fill="white"/>
<path d="M463.687 465.867L502.203 444.045C504.045 443.05 505.39 443.864 505.39 445.853V447.1C505.333 448.187 505.014 449.245 504.46 450.188C503.906 451.131 503.133 451.932 502.203 452.524L463.687 474.347C461.937 475.359 460.5 474.546 460.5 472.539V471.291C460.563 470.206 460.884 469.15 461.437 468.208C461.99 467.266 462.761 466.464 463.687 465.867Z" fill="#242861"/>
<path opacity="0.1" d="M463.687 465.867L502.203 444.045C504.045 443.05 505.39 443.864 505.39 445.853V447.1C505.333 448.187 505.014 449.245 504.46 450.188C503.906 451.131 503.133 451.932 502.203 452.524L463.687 474.347C461.937 475.359 460.5 474.546 460.5 472.539V471.291C460.563 470.206 460.884 469.15 461.437 468.208C461.99 467.266 462.761 466.464 463.687 465.867Z" fill="black"/>
<path d="M462.103 492.21L578.627 426.182C579.493 425.676 580.212 426.091 580.212 427.086V440.429C580.179 440.97 580.019 441.497 579.744 441.968C579.47 442.438 579.087 442.84 578.627 443.141L462.103 509.169C461.218 509.675 460.5 509.277 460.5 508.265V494.922C460.532 494.378 460.693 493.849 460.972 493.378C461.25 492.907 461.637 492.507 462.103 492.21Z" fill="#242861"/>
<path opacity="0.2" d="M462.103 492.21L578.627 426.182C579.493 425.676 580.212 426.091 580.212 427.086V440.429C580.179 440.97 580.019 441.497 579.744 441.968C579.47 442.438 579.087 442.84 578.627 443.141L462.103 509.169C461.218 509.675 460.5 509.277 460.5 508.265V494.922C460.532 494.378 460.693 493.849 460.972 493.378C461.25 492.907 461.637 492.507 462.103 492.21Z" fill="white"/>
<path d="M508.576 499.785L554.626 473.732C556.468 472.72 557.831 473.533 557.831 475.54V489.498C557.771 490.586 557.449 491.645 556.892 492.588C556.335 493.53 555.559 494.33 554.626 494.922L508.576 520.993C506.734 521.988 505.39 521.174 505.39 519.185V505.209C505.454 504.124 505.775 503.069 506.328 502.127C506.882 501.185 507.651 500.383 508.576 499.785Z" fill="#242861"/>
<path opacity="0.1" d="M508.576 499.785L554.626 473.732C556.468 472.72 557.831 473.533 557.831 475.54V489.498C557.771 490.586 557.449 491.645 556.892 492.588C556.335 493.53 555.559 494.33 554.626 494.922L508.576 520.993C506.734 521.988 505.39 521.174 505.39 519.185V505.209C505.454 504.124 505.775 503.069 506.328 502.127C506.882 501.185 507.651 500.383 508.576 499.785Z" fill="black"/>
<path d="M617.623 440.881C617.623 440.881 595.003 410.253 593.677 406.529C592.627 403.781 593.677 399.695 594.008 397.796C594.34 395.898 594.634 391.667 594.966 390.564C595.519 388.503 592.811 388.919 591.282 390.799C589.753 392.68 589.237 396.44 588.445 397.055C587.653 397.67 581.63 389.045 578.48 385.068C575.33 381.09 573.359 378.668 571.425 380.15C570.044 381.217 571.075 383.531 573.359 386.93C574.693 388.76 575.923 390.662 577.043 392.625C577.393 393.367 575.514 393.421 574.501 394.958C573.709 396.151 574.501 398.085 573.396 399.008C572.716 399.516 572.25 400.251 572.087 401.075C571.924 401.899 572.075 402.752 572.512 403.473C574.562 406.634 577.207 409.383 580.304 411.573C583.693 413.869 585.056 414.683 587.064 417.811C589.072 420.939 607.086 452.886 608.302 454.802C609.518 456.719 611.857 460.624 615.412 460.733C618.967 460.841 648.071 436.252 649.563 435.023C654.352 431.1 655.881 430.539 656.691 434.065C656.971 435.318 657.18 436.585 657.318 437.861C657.889 442.345 661.002 458.364 661.002 458.364C661.002 458.364 675.738 465.361 687.84 461.98C699.942 458.599 704.031 453.555 704.031 453.555L697.971 443.864C699.61 439.868 707.181 423.669 709.63 412.332L671.685 406.312C670.912 406.149 669.659 405.842 668.001 405.426C665.92 404.884 660.633 403.094 656.636 406.529C643.595 417.684 617.659 440.881 617.659 440.881" fill="#FFA8A7"/>
<path d="M692.85 628.804L686.053 638.079C689.142 639.495 692.517 640.206 695.926 640.159C702.023 640.375 703.699 638.351 703.92 637.953C704.952 635.783 703.349 631.878 702.907 628.515L692.85 628.804Z" fill="#37474F"/>
<path d="M686.44 633.632C686.44 633.632 678.188 633.107 672.496 632.42C666.804 631.733 662.291 634.445 663.617 636.741C664.944 639.038 668.093 640.954 672.993 642.563C677.174 643.955 682.203 644.95 686.55 646.179C690.897 647.409 693.918 649.018 696.442 648.15C699.26 647.192 700.476 646.089 700.236 644.064C699.621 641.184 698.859 638.335 697.952 635.53L686.44 633.632Z" fill="#37474F"/>
<path d="M703.92 619.493C703.92 619.493 702.889 627.918 702.815 629.726C702.741 631.534 694.434 632.113 692.85 628.804L692.592 618.499L703.92 619.493Z" fill="#F28F8F"/>
<path d="M695.558 624.664L698.523 637.465C698.523 637.465 698.8 639.019 692.021 640.014C685.242 641.008 674.596 636.524 672.772 635.62C670.948 634.716 670.746 632.89 677.414 633.252C684.082 633.614 686.44 633.632 686.44 633.632L684.266 627.973L695.558 624.664Z" fill="#FFA8A7"/>
<path d="M709.52 412.224L714.217 410.94C714.217 410.94 724.035 441.441 725.122 444.388C726.208 447.335 727.443 450.445 725.324 454.079C722.801 458.4 709.52 475.775 709.52 475.775L701.083 467.675L710.662 450.463L702.189 433.649L709.52 412.224Z" fill="#F28F8F"/>
<path d="M661.278 372.611C660.177 370.582 659.618 368.312 659.653 366.013C659.689 363.714 660.317 361.462 661.481 359.467C666.159 350.951 676.585 346.811 689 348.383C694.747 349.125 701.526 353.807 705.228 360.804C709.317 368.561 709.704 384.182 710.754 390.094L661.278 372.611Z" fill="#37474F"/>
<path d="M660.946 375.956C660.946 375.956 657.999 381.47 658.515 381.976C659.279 382.414 660.114 382.72 660.983 382.88L660.946 375.956Z" fill="#FFA8A7"/>
<path d="M669.898 358.526C666.693 360.569 661.167 364.33 660.928 376.715C660.67 389.371 662.512 393.547 664.428 395.012C665.717 396.006 673.288 395.5 676.53 394.759C679.772 394.017 689.111 389.479 692.481 382.591C696.442 374.491 695.631 362.703 689.755 359.087C686.764 357.351 683.374 356.389 679.901 356.291C676.427 356.193 672.986 356.962 669.898 358.526Z" fill="#FFA8A7"/>
<path d="M703.92 453.483C709.594 462.161 714.972 469.755 716.151 479.554C718.583 500.147 710.625 523.687 708.912 538.929C712.134 543.264 713.991 548.431 714.254 553.79C714.254 560.1 703.92 619.493 703.92 619.493C703.92 619.493 696.405 621.735 692.592 618.499L685.5 509.241L689.184 495.934L703.92 453.483Z" fill="#242861"/>
<path opacity="0.2" d="M703.92 453.483C709.594 462.161 714.972 469.755 716.151 479.554C718.583 500.147 710.625 523.687 708.912 538.929C712.134 543.264 713.991 548.431 714.254 553.79C714.254 560.1 703.92 619.493 703.92 619.493C703.92 619.493 696.405 621.735 692.592 618.499L685.5 509.241L689.184 495.934L703.92 453.483Z" fill="black"/>
<path d="M685.5 509.241L689.184 495.934C696.238 494.112 703.041 491.459 709.446 488.033C709.446 488.033 705.615 494.886 694.6 498.646L688.908 515.732L688.429 554.875L685.5 509.241Z" fill="#242861"/>
<path opacity="0.3" d="M685.5 509.241L689.184 495.934C696.238 494.112 703.041 491.459 709.446 488.033C709.446 488.033 705.615 494.886 694.6 498.646L688.908 515.732L688.429 554.875L685.5 509.241Z" fill="black"/>
<path d="M703.92 453.483C706.96 458.364 714.217 466.681 712.67 474.69C710.828 484.381 705.486 491.197 689.239 495.934L673.988 550.174C673.988 550.174 681.927 557.406 684.358 564.403C686.79 571.4 695.558 624.7 695.558 624.7C695.558 624.7 692.831 629.057 684.266 628.009C684.266 628.009 654.407 561.113 652.307 556.756C649.759 552.343 648.866 547.193 649.784 542.201C650.723 535.186 660.836 458.4 660.836 458.4L703.92 453.483Z" fill="#242861"/>
<path opacity="0.2" d="M703.92 453.483C706.96 458.364 714.217 466.681 712.67 474.69C710.828 484.381 705.486 491.197 689.239 495.934L673.988 550.174C673.988 550.174 681.927 557.406 684.358 564.403C686.79 571.4 695.558 624.7 695.558 624.7C695.558 624.7 692.831 629.057 684.266 628.009C684.266 628.009 654.407 561.113 652.307 556.756C649.759 552.343 648.866 547.193 649.784 542.201C650.723 535.186 660.836 458.4 660.836 458.4L703.92 453.483Z" fill="black"/>
<path d="M709.52 412.224L671.575 406.203C670.801 406.041 669.549 405.733 667.891 405.317C667.891 405.317 666.27 428.677 656.526 434.028C656.765 435.149 656.968 436.397 657.152 437.825C657.723 442.309 660.836 458.328 660.836 458.328C660.836 458.328 675.572 465.325 687.674 461.944C699.776 458.563 703.865 453.519 703.865 453.519L697.805 443.828C699.499 439.796 707.125 423.596 709.52 412.224Z" fill="#242861"/>
<path opacity="0.7" d="M709.52 412.224L671.575 406.203C670.801 406.041 669.549 405.733 667.891 405.317C667.891 405.317 666.27 428.677 656.526 434.028C656.765 435.149 656.968 436.397 657.152 437.825C657.723 442.309 660.836 458.328 660.836 458.328C660.836 458.328 675.572 465.325 687.674 461.944C699.776 458.563 703.865 453.519 703.865 453.519L697.805 443.828C699.499 439.796 707.125 423.596 709.52 412.224Z" fill="white"/>
<path d="M699.518 439.977C694.479 442.947 689.199 445.505 683.732 447.625C688.694 447.527 693.552 446.21 697.86 443.792L699.518 439.977Z" fill="#242861"/>
<path d="M668.959 359.141C668.959 359.141 667.117 370.893 671.464 377.8C671.464 377.8 673.085 373.117 677.119 374.003C681.153 374.889 681.374 380.114 678.538 383.043C677.816 383.864 676.874 384.47 675.818 384.79C674.763 385.109 673.637 385.131 672.569 384.851C672.569 384.851 671.925 393.348 671.575 400.472C671.225 407.596 669.309 423.126 677.469 429.4C685.629 435.674 706.112 437.88 715.709 424.717C721.051 417.395 713.959 404.45 710.662 389.931C707.623 376.588 705.91 356.809 691.487 353.627C677.064 350.445 668.959 359.141 668.959 359.141Z" fill="#37474F"/>
<path d="M721.88 198.573L718.84 200.381C719.096 199.319 719.238 198.235 719.264 197.144C719.264 191.088 714.935 188.647 709.594 191.72C707.968 192.683 706.517 193.905 705.302 195.336C705.302 187.2 699.481 183.892 692.297 187.96C688.512 190.383 685.361 193.648 683.102 197.49C680.842 201.332 679.537 205.642 679.293 210.072C679.293 210.487 679.293 210.885 679.293 211.283C677.442 211.054 675.569 211.477 674.006 212.476C671.191 214.276 668.849 216.703 667.169 219.558C665.488 222.414 664.518 225.618 664.336 228.911C664.335 229.676 664.415 230.44 664.575 231.189L662.954 232.111C658.552 234.606 654.978 239.47 654.978 242.959C654.978 246.449 658.552 247.28 662.954 244.767L721.898 211.409C726.301 208.914 729.874 204.051 729.874 200.561C729.874 197.072 726.282 196.06 721.88 198.573Z" fill="#EBEBEB"/>
</svg>
