<svg width="150" height="150" viewBox="0 0 150 150" fill="none" xmlns="http://www.w3.org/2000/svg">
<circle cx="75" cy="75" r="75" fill="#242861"/>
<line x1="42.9636" y1="37.1192" x2="54.3923" y2="37.0364" stroke="white" stroke-width="10" stroke-linecap="round"/>
<line x1="38.5233" y1="104.453" x2="100.663" y2="103.857" stroke="white" stroke-width="10"/>
<line x1="38.2446" y1="99.6583" x2="55.1507" y2="37.3728" stroke="white" stroke-width="10" stroke-linecap="round"/>
<circle cx="37" cy="106" r="9.5" fill="white" stroke="white"/>
<circle cx="99" cy="106" r="9.5" fill="white" stroke="white"/>
<path d="M53.1461 53.0559C53.668 51.0232 55.5257 49.6211 57.6236 49.6766L112.318 51.1225C115.178 51.1981 117.242 53.8882 116.575 56.6702L108.862 88.8351C108.376 90.8588 106.567 92.2857 104.486 92.2857H48.8745C45.9351 92.2857 43.7849 89.5136 44.5159 86.6666L53.1461 53.0559Z" fill="white" stroke="white"/>
<path d="M82.4084 67.7929L80.9821 69.5709L69.208 68.0681L70.4757 66.2699L82.4084 67.7929ZM79.6301 71.1883L78.119 73.0002L68.1062 71.7222L69.3795 69.8799L79.6301 71.1883ZM86.1054 63.3692L83.81 66.1371C83.6314 65.9472 83.4047 65.7363 83.13 65.5043C82.862 65.2672 82.534 65.0553 82.1461 64.8686C81.7649 64.6767 81.316 64.5478 80.7993 64.4819C79.9833 64.3778 79.2114 64.4881 78.4838 64.8129C77.7621 65.1384 77.1051 65.7049 76.5127 66.5124C75.9204 67.3198 75.4229 68.39 75.02 69.7228C74.6216 71.0681 74.4612 72.1843 74.539 73.0713C74.6233 73.9532 74.9067 74.6307 75.3893 75.104C75.8785 75.5722 76.5311 75.8584 77.3471 75.9625C77.8638 76.0284 78.3509 76.022 78.8084 75.9432C79.2719 75.8651 79.6917 75.7546 80.0679 75.6117C80.45 75.4695 80.7716 75.3345 81.0325 75.2068L81.5728 78.3366C80.7773 78.772 79.9338 79.0701 79.0422 79.2308C78.1572 79.3863 77.2597 79.406 76.3497 79.2898C74.8115 79.0935 73.5575 78.5635 72.5878 77.6999C71.6247 76.8312 71.0107 75.6818 70.7457 74.2518C70.4815 72.8159 70.6323 71.1437 71.1981 69.235C71.7631 67.3322 72.5832 65.7453 73.6583 64.4744C74.7393 63.2043 75.9783 62.2854 77.3753 61.7179C78.773 61.1445 80.241 60.956 81.7792 61.1523C82.7244 61.273 83.5577 61.5225 84.2791 61.901C85.0063 62.2802 85.6151 62.7696 86.1054 63.3692Z" fill="#242861"/>
</svg>
